<?xml version="1.0" standalone="no"?>
<!DOCTYPE svg PUBLIC "-//W3C//DTD SVG 20010904//EN"
 "http://www.w3.org/TR/2001/REC-SVG-20010904/DTD/svg10.dtd">
<svg version="1.0" xmlns="http://www.w3.org/2000/svg"
 width="128.000000pt" height="128.000000pt" viewBox="0 0 128.000000 128.000000"
 preserveAspectRatio="xMidYMid meet">

<g transform="translate(0.000000,128.000000) scale(0.100000,-0.100000)"
fill="#000000" stroke="none">
<path d="M1 993 c1 -280 1 -286 15 -219 52 242 248 438 489 490 68 14 63 14
-217 15 l-288 1 1 -287z"/>
<path d="M773 1264 c149 -32 305 -129 257 -159 -6 -3 -37 10 -69 30 -137 85
-312 116 -451 81 -272 -68 -460 -304 -460 -576 0 -139 56 -288 148 -390 l49
-54 13 39 c32 101 118 196 218 243 50 24 69 27 162 27 93 0 112 -3 162 -27
100 -47 186 -142 218 -243 l13 -39 48 52 c55 59 111 168 134 257 31 123 15
264 -45 394 -30 64 -31 81 -4 81 28 0 81 -119 103 -231 6 -29 9 50 10 244 l1
287 -287 -1 c-278 -1 -286 -1 -220 -15z m347 -214 c0 -13 -7 -20 -20 -20 -13
0 -20 7 -20 20 0 13 7 20 20 20 13 0 20 -7 20 -20z m-392 -56 c176 -73 176
-335 0 -408 -48 -20 -128 -20 -176 0 -173 72 -178 326 -7 405 49 23 133 24
183 3z"/>
<path d="M585 955 c-85 -30 -137 -124 -114 -207 14 -55 72 -113 127 -127 121
-33 244 89 212 209 -27 100 -132 159 -225 125z"/>
<path d="M1 288 l-1 -288 288 1 c263 1 282 2 227 14 -98 21 -170 53 -247 108
-126 91 -220 233 -252 382 -14 68 -14 63 -15 -217z"/>
<path d="M1270 546 c0 -14 -11 -60 -25 -104 -69 -218 -246 -376 -480 -427 -55
-12 -36 -13 228 -14 l287 -1 0 285 c0 157 -2 285 -5 285 -3 0 -5 -11 -5 -24z"/>
<path d="M574 460 c-135 -28 -247 -138 -278 -272 -6 -25 -1 -30 46 -58 101
-57 171 -75 298 -75 127 0 197 18 298 75 58 34 59 39 21 127 -62 147 -230 235
-385 203z"/>
</g>
</svg>
